@startuml
abstract class View.Button {
# int xPos
# int yPos
# int width
# int height
# Color previousColor
# JLayeredPane pane
# GameState gameStateWhenCreated
# View view
+ void drawButton(Graphics)
+ int[] getEndPosition()
+ boolean isVisible()
+ boolean mouseIsOverButton(int,int)
}
enum Model.Direction {
+  NORTH
+  EAST
+  SOUTH
+  WEST
+  NORTHEAST
+  NORTHWEST
+  SOUTHEAST
+  SOUTHWEST
+ int direction
+ int getDirection(int)
}
class Model.Pieces.Bishop {
+ {static} int value
+ List<Move> getPossibleMoves(int,Board)
}
class Model.Pieces.Rook {
+ {static} int value
+ List<Move> getPossibleMoves(int,Board)
}
class Model.Move {
+ int from
+ int to
- boolean castle
+ Move castleRookMove
~ boolean enPassant
+ int enPassantPosition
+ boolean isMoveCastle()
+ boolean isEnPassant()
+ int[] getMove()
+ String toString()
+ boolean equals(Object)
+ int hashCode()
}
class Model.Pieces.Knight {
+ {static} int value
+ List<Move> getPossibleMoves(int,Board)
}
interface Model.IBoard {
~ void createBoard()
~ void initBoard()
~ Square getSquare(int)
~ Piece getPiece(int)
+ void doMove(Move)
~ {static} int[] squareToCoordinates(int)
~ {static} int coordinatesToSquare(int[])
}
class Model.PinnedPiece {
+ int pinnedPiece
+ int pinnedFrom
+ boolean equals(Object)
+ int hashCode()
}
class Model.GetLines {
+ {static} List<Move> getMoves(int,Board,boolean,boolean)
+ {static} List<Integer> getLine(int,int)
- {static} List<Integer> findSquares(int,Board,boolean,boolean)
- {static} List<Integer> checkDirection(int,int,int,int,Board)
- {static} List<Integer> checkDirection(int,int,int,Board)
}
class Model.Pieces.Pawn {
+ {static} int value
+ List<Move> getPossibleMoves(int,Board)
+ List<Move> getPossibleThreats(int,Board)
}
interface Controller.IMovable {
~ List<Piece> getAllPieces()
~ Piece getPiece(int)
~ void doMove(Move)
+ boolean kingInCheck()
+ boolean kingInCheck(Piece)
~ List<Move> getLegalMoves()
}
abstract class Model.Pieces.Piece {
+ Type type
+ Team team
- int position
+ int value
+ Team getTeam()
+ Type getPiece()
+ int getPosition()
+ void setPosition(int)
+ boolean equals(Object)
+ int hashCode()
+ Piece clone()
}
class Model.Board {
- Square[] squares
# List<Piece> whitePieces
# List<Piece> blackPieces
# List<Piece> deadPieces
+ Stack<MoveHistory> moveHistoryList
- Team currentPlayer
- Clock clock
+ void installClock(Clock)
+ void createBoard()
+ void initBoard()
+ Square getSquare(int)
+ Piece getPiece(int)
+ int getScore()
+ Team getTeam()
- void nextTeam()
+ void doMove(Move)
+ void upgradePawn(Type)
+ void undoMove(int)
+ void loadBoardFromMoveHistory(MoveHistory)
- void kill(int)
+ boolean isSquareFriendly(int)
# List<Square> squaresBetween(int,int)
}
interface View.IDrawController {
~ List<ViewPiece> getPiecesOnTheBoard()
~ List<Integer> getLegalSquares()
~ GameState getGameState()
~ List<ViewPiece> getDeadViewPieces(Team)
}
class Controller.AI {
- Controller controller
+ boolean enabled
- Team AI_TEAM
- Model model
- Random random
+ void installModel(Model)
+ Team getTeam()
+ void createMove()
+ boolean isAiTurn()
+ void upgradePawn()
}
class Model.Square {
- int Id
- Piece piece
~ int getSquareId()
~ void setPiece(Piece)
+ Piece getPiece()
+ boolean isEmpty()
+ void removePiece()
}
class View.ViewPiece {
+ Type type
+ Team team
+ int position
+ BufferedImage image
+ BufferedImage smallImage
}
class Main.Main {
+ {static} void main(String[])
}
class Model.MoveHistory {
+ {static} int numberOfMoves
+ int moveID
+ Team currentPlayer
+ List<Piece> whitePieces
+ List<Piece> blackPieces
+ List<Piece> deadPieces
+ Move move
+ Clock clock
- List<Piece> copyPieceList(List<Piece>)
}
class Main.Constants {
+ {static} int squareSize
+ {static} int boardOffset
+ {static} int displayWidth
+ {static} int displayHeight
+ {static} int upgradePawnBoxHeight
+ {static} int upgradePawnBoxWidth
+ {static} int TIME_MINUTES
+ {static} int TIME_ADDED_EACH_MOVE_SECONDS
+ {static} Team AI_TEAM
+ {static} GameState DEFAULT_GAME_STATE
+ {static} Color colorBackground
+ {static} Color colorDarkSquare
+ {static} Color colorLightSquare
+ {static} Color colorHighlightSquare
+ {static} Color colorPawnUpgradeBG
+ {static} Color BUTTON
+ {static} BufferedImage pawnW
+ {static} BufferedImage rookW
+ {static} BufferedImage knightW
+ {static} BufferedImage bishopW
+ {static} BufferedImage queenW
+ {static} BufferedImage kingW
+ {static} BufferedImage pawnB
+ {static} BufferedImage rookB
+ {static} BufferedImage knightB
+ {static} BufferedImage bishopB
+ {static} BufferedImage queenB
+ {static} BufferedImage kingB
+ {static} BufferedImage rookWB
}
class Model.Clock {
+ boolean enabled
- int whiteClock_Seconds
- int blackClock_Seconds
~ Team currentPlayer
~ Timer timer
~ View view
~ Controller controller
+ Team getCurrentPlayer()
+ void nextPlayer()
+ void start()
+ int getTime()
+ int getTime(Team)
+ void setTime(Team,int)
+ void actionPerformed(ActionEvent)
+ Clock clone()
}
class View.imageButton {
+ BufferedImage image
+ Type type
+ ButtonAction action
+ void drawButton(Graphics)
+ void mouseClicked(MouseEvent)
+ void mousePressed(MouseEvent)
+ void mouseReleased(MouseEvent)
+ void mouseEntered(MouseEvent)
+ void mouseExited(MouseEvent)
}
class Model.Pieces.Queen {
+ {static} int value
+ List<Move> getPossibleMoves(int,Board)
}
class Model.Model {
- Board board
- Clock clock
+ void installClock(Clock)
- List<Move> getPossibleMoves()
- List<Move> getPossibleThreats()
+ boolean kingInCheck()
+ boolean kingInCheck(Piece)
+ List<Move> getLegalMoves()
- Piece getKing()
- Piece getKing(Team)
+ Team getTeam()
+ boolean isSquareFriendly(int)
+ List<Piece> getAllPieces()
+ Piece getPiece(int)
+ int getScore()
+ void doMove(Move)
+ void undoMove()
+ void undoMove(int)
+ void upgradePawn(Type)
- void updateCastlingLegality(Move)
- List<PinnedPiece> getPinnedPieces()
+ List<Piece> getDeadPieces()
}
interface View.ButtonAction {
~ void executeAction()
}
class Model.Pieces.King {
+ boolean castleKingSide
+ boolean castleQueenSide
+ {static} int value
+ List<Move> getPossibleMoves(int,Board)
+ void setCastleKingSideToFalse()
+ void setCastleQueenSideToFalse()
}
enum Controller.GameState {
+  MAIN_MENU
+  CREATE_GAME
+  ACTIVE_GAME
+  UPGRADE_PAWN
+  CHECK_MATE
+  DRAW
+  TIME_OUT
}
class View.GraphicHelperMethods {
+ {static} int getStringWidth(Graphics,Font,String)
+ {static} int getStringHeight(Graphics,Font,String)
+ {static} int getStringAscent(Graphics,Font)
+ {static} void drawCenteredString(Graphics,String,int,int,int,int)
}
enum Model.Type {
+  PAWN
+  ROOK
+  KNIGHT
+  BISHOP
+  QUEEN
+  KING
}
class View.View {
~ List<Integer> legalSquares
# Team selectTeam
~ Controller controller
~ Clock clock
~ int minutesPerSide
~ int secondsPerMove
~ List<Button> createGame_buttonsList
~ List<Button> upgradeButtonsWhite
~ List<Button> upgradeButtonsBlack
~ List<Button> hudButtons
+ void installController(Controller)
+ void installClock(Clock)
+ void paintComponent(Graphics)
- int[] inverseSquareToCoords(int)
- void mainMenu(Graphics)
- void createGameScreen(Graphics)
- void createGame()
- void boardLayer(Graphics)
- void pieceLayer(Graphics)
- void hudLayer(Graphics)
- void endScreen(Graphics,String)
- void drawDeadPieces(Graphics,JLayeredPane)
- void drawClock(Graphics)
+ List<Button> getUpgradeButtons(Team)
- List<Button> getCreateGameButtons()
- List<Button> getHudButtons()
}
class Controller.Controller {
- Integer[] clickHolder
- List<Move> selectedLegalMoves
+ Model model
+ GameState gameState
+ AI ai
~ View view
+ void installModel(Model)
+ void installAI(AI)
+ void mousePressed(MouseEvent)
+ void handleClicks(int)
- int rawCoordsToSquare(int,int)
- void updateSelectedLegalMoves(int)
- void createMove(int,int)
~ void checkPawnUpgrade(Move)
~ void checkIfGameOver()
+ List<Integer> getLegalSquares()
+ GameState getGameState()
+ void setGameState(GameState)
+ List<ViewPiece> getDeadViewPieces(Team)
+ List<ViewPiece> getPiecesOnTheBoard()
+ Team getTeam()
}
class View.TextButton {
~ ButtonAction action
~ String text
+ void drawButton(Graphics)
+ void mouseClicked(MouseEvent)
+ void mousePressed(MouseEvent)
+ void mouseReleased(MouseEvent)
+ void mouseEntered(MouseEvent)
+ void mouseExited(MouseEvent)
}
interface Model.Pieces.IPiece {
~ Team getTeam()
~ Type getPiece()
~ int getPosition()
~ void setPosition(int)
~ List<Move> getPossibleMoves(int,Board)
}
enum Model.Team {
+  WHITE
+  BLACK
}


java.awt.event.MouseListener <|.. View.Button
Model.Pieces.Piece <|-- Model.Pieces.Bishop
Model.Pieces.Piece <|-- Model.Pieces.Rook
Model.Pieces.Piece <|-- Model.Pieces.Knight
Model.Pieces.Piece <|-- Model.Pieces.Pawn
Model.Pieces.IPiece <|.. Model.Pieces.Piece
Model.Pieces.Cloneable <|.. Model.Pieces.Piece
Model.IBoard <|.. Model.Board
java.awt.event.ActionListener <|.. Model.Clock
Model.Cloneable <|.. Model.Clock
View.Button <|-- View.imageButton
Model.Pieces.Piece <|-- Model.Pieces.Queen
Controller.IMovable <|.. Model.Model
Model.Pieces.Piece <|-- Model.Pieces.King
View.JComponent <|-- View.View
View.IDrawController <|.. Controller.Controller
Controller.MouseAdapter <|-- Controller.Controller
View.Button <|-- View.TextButton
@enduml